<svg version="1" xmlns="http://www.w3.org/2000/svg" width="506.667" height="506.667" viewBox="0 0 380.000000 380.000000"><path d="M224.5 3.8c-1.2 2-49.7 87.3-107.8 189.4C58.6 295.4 11 379.2 11 379.5c0 .3 18.6.5 41.3.5h41.3l21.4-39 21.4-39h139.5l.6 4.2c.6 4.2 7.5 71.6 7.5 73 0 .5 19.4.8 43 .8 33.7 0 43-.3 43-1.3 0-.6-9.7-69.6-21.5-153.2S324.7 57 321.9 36.7L316.7 0h-90.2l-2 3.8zm35.6 158.5c4.2 40.3 7.6 73.3 7.5 73.5-.2.1-21.7.1-47.9 0l-47.5-.3 35.9-66.5c19.7-36.6 37.6-69.7 39.6-73.7 2.1-3.9 4-7 4.3-6.7.2.3 3.9 33.5 8.1 73.7z"/></svg>